<svg width="39" height="39" viewBox="0 0 39 39" fill="none" xmlns="http://www.w3.org/2000/svg">
<path d="M19.5 0C8.73112 0 0 8.73112 0 19.5C0 30.2689 8.73112 39 19.5 39C30.2689 39 39 30.2689 39 19.5C39 8.73112 30.2689 0 19.5 0ZM29.3573 15.6731C29.6546 22.2381 24.7585 29.5571 16.0908 29.5571C13.455 29.5571 11.0029 28.7836 8.9375 27.4593C11.414 27.7518 13.8856 27.0627 15.847 25.5271C13.806 25.4897 12.0819 24.1394 11.4855 22.2852C12.2184 22.425 12.9399 22.3844 13.5948 22.2056C11.3506 21.7539 9.80037 19.7324 9.85075 17.5695C10.4812 17.9189 11.1995 18.1285 11.9649 18.1529C9.8865 16.7635 9.29825 14.0189 10.5203 11.921C12.8212 14.7452 16.2614 16.6026 20.1402 16.7976C19.4594 13.8791 21.6742 11.0662 24.6886 11.0662C26.0292 11.0662 27.2431 11.6334 28.0946 12.5401C29.1574 12.3321 30.1584 11.9421 31.0586 11.4075C30.7093 12.4979 29.9699 13.4111 29.0063 13.9896C29.9504 13.8759 30.8506 13.6256 31.6859 13.2535C31.0619 14.1927 30.2721 15.015 29.3573 15.6731Z" fill="#1DA1F2"/>
</svg>
