<svg width="39" height="39" viewBox="0 0 39 39" fill="none" xmlns="http://www.w3.org/2000/svg">
<g clip-path="url(#clip0_130_3192)">
<path d="M19.5 0C8.73112 0 0 8.73112 0 19.5C0 30.2689 8.73112 39 19.5 39C30.2689 39 39 30.2689 39 19.5C39 8.73112 30.2689 0 19.5 0ZM26.7166 27.4495C23.3009 27.6835 15.6926 27.6835 12.2817 27.4495C8.58325 27.196 8.15263 25.3857 8.125 19.5C8.15263 13.6029 8.58813 11.804 12.2817 11.5505C15.6926 11.3165 23.3025 11.3165 26.7166 11.5505C30.4167 11.804 30.8458 13.6143 30.875 19.5C30.8458 25.3971 30.4119 27.196 26.7166 27.4495ZM16.25 15.6943L24.2401 19.4935L16.25 23.3057V15.6943Z" fill="#FF0000"/>
</g>
<defs>
<clipPath id="clip0_130_3192">
<rect width="39" height="39" fill="white"/>
</clipPath>
</defs>
</svg>
